<svg id="visual" viewBox="0 0 900 600" width="900" height="600" xmlns="http://www.w3.org/2000/svg" xmlns:xlink="http://www.w3.org/1999/xlink" version="1.1"><path d="M0 417L21.5 413.2C43 409.3 86 401.7 128.8 397.2C171.7 392.7 214.3 391.3 257.2 398.7C300 406 343 422 385.8 417.5C428.7 413 471.3 388 514.2 390C557 392 600 421 642.8 437C685.7 453 728.3 456 771.2 442.7C814 429.3 857 399.7 878.5 384.8L900 370L900 601L878.5 601C857 601 814 601 771.2 601C728.3 601 685.7 601 642.8 601C600 601 557 601 514.2 601C471.3 601 428.7 601 385.8 601C343 601 300 601 257.2 601C214.3 601 171.7 601 128.8 601C86 601 43 601 21.5 601L0 601Z" fill="#dbe2ef"></path><path d="M0 468L21.5 475.8C43 483.7 86 499.3 128.8 503.2C171.7 507 214.3 499 257.2 503.7C300 508.3 343 525.7 385.8 534.3C428.7 543 471.3 543 514.2 538.2C557 533.3 600 523.7 642.8 518C685.7 512.3 728.3 510.7 771.2 507.5C814 504.3 857 499.7 878.5 497.3L900 495L900 601L878.5 601C857 601 814 601 771.2 601C728.3 601 685.7 601 642.8 601C600 601 557 601 514.2 601C471.3 601 428.7 601 385.8 601C343 601 300 601 257.2 601C214.3 601 171.7 601 128.8 601C86 601 43 601 21.5 601L0 601Z" fill="#f9f7f7"></path></svg>