<?xml version="1.0" encoding="utf-8"?>
<!-- Generator: Adobe Illustrator 26.3.0, SVG Export Plug-In . SVG Version: 6.00 Build 0)  -->
<svg version="1.1" xmlns="http://www.w3.org/2000/svg" xmlns:xlink="http://www.w3.org/1999/xlink" x="0px" y="0px"
	 viewBox="0 0 2000 2000" style="enable-background:new 0 0 2000 2000;" xml:space="preserve">
<style type="text/css">
	.st0{fill:#172E4D;}
</style>
<g id="Layer_1">
	<path class="st0" d="M1199.3,605.12c0,36.66-29.72,66.38-66.38,66.38c-11.82,0-22.92-3.09-32.53-8.51l-56.54,48.21
		c6.02,13.3,9.37,28.07,9.37,43.61c0,40.61-22.87,75.88-56.43,93.63l13.75,58.89c30.21,2.34,54,27.59,54,58.41
		c0,32.36-26.23,58.59-58.59,58.59c-32.36,0-58.6-26.23-58.6-58.59c0-17.71,7.86-33.58,20.27-44.32l-14.23-60.92
		c-2,0.12-4.01,0.18-6.04,0.18c-58.47,0-105.86-47.4-105.86-105.87c0-2.04,0.06-4.07,0.18-6.08l-66.48-24.65
		c-10.7,11.61-26.04,18.88-43.08,18.88c-32.36,0-58.59-26.23-58.59-58.6c0-32.36,26.23-58.59,58.59-58.59
		c31.51,0,57.2,24.86,58.53,56.04l63.16,23.42c17.77-33.49,53-56.29,93.55-56.29c26.64,0,50.97,9.84,69.58,26.08l54.02-46.06
		c-2.85-7.4-4.41-15.44-4.41-23.84c0-36.66,29.72-66.38,66.38-66.38C1169.58,538.74,1199.3,568.46,1199.3,605.12z"/>
	<path class="st0" d="M958.67,551.96c0,32.36-26.23,58.59-58.59,58.59c-32.36,0-58.59-26.23-58.59-58.59s26.23-58.6,58.59-58.6
		C932.44,493.36,958.67,519.6,958.67,551.96z"/>
	<path class="st0" d="M841.48,894.87c0,29.92-24.26,54.18-54.18,54.18c-29.93,0-54.19-24.26-54.19-54.18
		c0-29.93,24.26-54.19,54.19-54.19C817.22,840.68,841.48,864.94,841.48,894.87z"/>
	<path class="st0" d="M1213.46,775.95c0,29.78-24.14,53.91-53.91,53.91c-29.78,0-53.92-24.13-53.92-53.91
		c0-29.78,24.14-53.92,53.92-53.92C1189.32,722.03,1213.46,746.17,1213.46,775.95z"/>
</g>
<g id="Layer_2">
	<g>
		<g>
			<path class="st0" d="M651.95,758.22c-20.7,63.01-41.89,129-36.56,196.23c2.67,33.75,11.57,66.3,22.23,98.3
				c10.58,31.8,21.47,63.63,35.25,94.2c14.12,31.31,34.29,59.51,47.71,91.13c-0.67-1.59-1.34-3.19-2.02-4.78
				c5.49,13.13,9.41,26.68,11.32,40.79c-0.24-1.77-0.48-3.54-0.71-5.32c3.01,23.51,1.73,47.63-1.36,71.07
				c0.24-1.77,0.48-3.54,0.71-5.32c-2.24,16.5-5.65,32.81-10.23,48.83c-2.87,10.05,3.51,22.22,13.97,24.6
				c10.66,2.43,21.53-3.2,24.6-13.97c5.62-19.67,9.32-39.73,11.68-60.04c2.19-18.82,3.11-38.01,1.51-56.92
				c-0.9-10.71-2.43-21.47-5.16-31.88c-2.46-9.38-5.99-18.35-9.78-27.26c-6.83-16.07-15.53-31.22-24.21-46.34
				c-10.18-17.74-19.74-35.65-27.74-54.49c0.67,1.59,1.34,3.19,2.02,4.78c-8.39-19.89-15.52-40.28-22.53-60.69
				c-7.05-20.5-14.02-41.06-19.36-62.09c-2.99-11.81-5.44-23.75-7.1-35.82c0.24,1.77,0.48,3.54,0.71,5.32
				c-3.36-25.12-2.77-50.46,0.54-75.55c-0.24,1.77-0.48,3.54-0.71,5.32c6-44.36,19.86-87.1,33.78-129.48
				c3.27-9.95-3.79-22.28-13.97-24.6C665.55,741.75,655.45,747.57,651.95,758.22L651.95,758.22z"/>
		</g>
	</g>
	<g>
		<g>
			<path class="st0" d="M1218.67,666.09c5.61,6.84,11.23,13.67,16.82,20.53c2.58,3.17,5.16,6.35,7.71,9.54
				c1.14,1.42,2.27,2.85,3.4,4.28c0.56,0.71,1.13,1.43,1.69,2.15c0.56,0.72,1.12,1.43,1.68,2.15c-0.49-0.63-0.97-1.26-1.46-1.89
				c9.49,13.33,19.33,26.16,27.47,40.42c2,3.51,3.92,7.07,5.74,10.68c0.81,1.6,1.59,3.21,2.36,4.84c0.85,1.8,2.52,4.18,2.77,6.13
				c-0.4-3.21-1.13-2.76-0.46-1.05c0.41,1.05,0.83,2.08,1.24,3.13c0.73,1.89,1.42,3.79,2.08,5.7c1.36,3.94,2.57,7.92,3.64,11.95
				c1.09,4.12,2.03,8.29,2.82,12.48c0.35,1.85,0.67,3.71,0.97,5.58c0.1,0.62,0.52,2.09,0.42,2.8c-0.36-2.75-0.44-3.36-0.24-1.82
				c0.09,0.7,0.18,1.4,0.26,2.1c0.99,8.44,1.47,16.93,1.58,25.42c0.49,34.68-4.89,69.08-7.35,103.6
				c-2.53,35.5-0.9,71.05,9.01,105.42c5,17.34,11.86,34.25,19.95,50.38c3.77,7.52,7.89,14.86,12.3,22.02
				c2.07,3.37,4.19,6.71,6.17,10.13c1.05,1.81,2.06,3.63,3,5.49c0.42,0.82,0.81,1.66,1.21,2.49c1.75,3.6-1.13-3.83,0.09,0.33
				c0.52,1.77,1.17,3.49,1.59,5.3c0.12,0.51,0.19,1.67,0.45,2.19c-1.57-3.17-0.42-4.03-0.25-1.4c0.11,1.71,0.03,3.37-0.01,5.08
				c-0.05,2.19-1.18,0.83,0.3-1.97c-0.46,0.88-0.48,2.3-0.76,3.25c-0.19,0.65-0.61,1.46-0.7,2.09c0.06-0.39,2.26-4.45,0.67-1.79
				c-0.36,0.61-0.76,1.25-1.1,1.87c-1.49,2.73,0.74-1.35,1.16-1.46c-0.46,0.12-1.55,1.52-1.94,1.92c-1.76,1.77,4.3-2.53,1.1-0.96
				c-0.58,0.28-1.21,0.66-1.75,0.98c-2.97,1.75,4.6-1.5,1.05-0.43c-13.99,4.22-29.44,5.13-39.87,16.8
				c-7.19,8.05-9.29,17.63-11.45,27.81c-1.81,8.51-3.89,16.96-6.25,25.34c-2.35,8.38-4.97,16.68-7.86,24.89
				c-1.36,3.88-2.78,7.73-4.26,11.57c-0.78,2.03-1.58,4.05-2.4,6.07c-0.45,1.12-0.92,2.24-1.37,3.36c-1.43,3.52,1.05-2.4,0.04-0.1
				c-6.61,15.04-13.63,30.03-22.31,44c-1.81,2.92-3.71,5.79-5.72,8.58c-0.47,0.66-0.96,1.3-1.43,1.95
				c-2.45,3.39,2.33-2.84,0.54-0.71c-1.29,1.53-2.54,3.08-3.88,4.56c-2.24,2.49-4.61,4.87-7.13,7.08c-0.59,0.52-1.2,1-1.78,1.52
				c-3.05,2.7,3.07-2.16,0.83-0.62c-1.6,1.1-3.16,2.22-4.83,3.22c-1.49,0.9-3.02,1.74-4.59,2.5c-0.69,0.34-1.45,0.61-2.11,0.98
				c0.32-0.18,4.63-1.74,1.52-0.71c-1.81,0.6-3.6,1.19-5.45,1.65c-0.93,0.23-1.86,0.43-2.79,0.62c-0.7,0.14-1.4,0.27-2.11,0.38
				c2.72-0.33,3.31-0.42,1.77-0.24c-8.72,0.66-17.32,0.42-26.05,0.01c-18.28-0.87-36.57-1.73-54.85-2.6
				c-10.63-0.5-21.25-0.57-30.71,5.14c-8.18,4.94-13.78,13.11-17.65,21.66c-7.73,17.08-13.97,34.8-18.05,53.11
				c-2.19,9.82-3.66,19.75-4.9,29.73c-0.59,4.72,2.66,10.94,5.86,14.14c3.47,3.47,9.16,6.08,14.14,5.86
				c5.17-0.23,10.54-1.93,14.14-5.86c3.83-4.17,5.17-8.57,5.86-14.14c0.6-4.83-0.52,3.36-0.05,0.26c0.15-0.96,0.28-1.92,0.43-2.88
				c0.33-2.16,0.69-4.32,1.08-6.47c0.78-4.3,1.67-8.59,2.67-12.84c2.06-8.75,4.58-17.39,7.56-25.87c1.37-3.9,2.87-7.74,4.39-11.58
				c1.33-3.36-0.14,0.2-0.33,0.74c0.41-1.13,0.97-2.24,1.46-3.34c0.8-1.79,1.62-3.58,2.55-5.31c0.81-1.52,1.89-2.89,2.69-4.4
				c-2.05,3.84-2.15,2.54-0.99,1.45c0.22-0.21,1.43-1.15,1.61-1.52c-0.76,0.6-1.51,1.21-2.27,1.81c1.38-0.75,1.27-0.77-0.33-0.06
				c-3.77,0.5,1.09,0.42,1.18-0.18c-0.05,0.37-5.26,0.21-1.48,0.24c1.31,0.01,2.61-0.05,3.92-0.02c18.38,0.45,36.77,1.73,55.14,2.6
				c18.11,0.86,37.15,2.49,54.4-4.36c32.74-13.01,51.2-44.34,65.73-74.7c15.58-32.59,27-66.7,34.27-102.06
				c0.38-1.84,0.76-3.67,1.31-5.47c1.16-3.82,0.27,0.76-0.45,0.75c0.05,0,1.31-2.33,1.26-2.12c-0.07,0.28-3.35,3.82-1.24,1.79
				c2.26-2.18-1.92,1.35-1.88,1.27c0.57-1.09,3.13-1.73,4.14-2.35c-4.38,2.7-3.4,1.28-1.57,0.8c0.81-0.21,1.6-0.5,2.41-0.72
				c1.32-0.36,2.66-0.67,4-0.96c3.24-0.71,6.5-1.3,9.72-2.13c8.55-2.21,17.17-6.16,23.27-12.72c7.69-8.27,11.38-18.44,12.4-29.55
				c1.74-18.81-8.15-35.54-17.61-50.92c-4.41-7.17-8.53-14.5-12.3-22.02c-1.89-3.76-3.69-7.57-5.4-11.41
				c-0.63-1.41-2.26-6.64-0.76-1.66c-0.66-2.21-1.78-4.36-2.6-6.51c-6.12-15.9-10.71-32.4-13.48-49.21
				c-0.22-1.31-1.89-8.13-0.41-2.3c-0.45-1.77-0.47-3.74-0.66-5.56c-0.48-4.51-0.82-9.03-1.04-13.56
				c-0.44-8.86-0.44-17.75-0.14-26.62c1.15-34.73,6.74-69.13,8.09-103.84c0.73-18.65-0.14-37.11-2.87-55.58
				c-2.65-17.89-8.13-34.78-15.45-51.28c-13.83-31.19-35.39-58.28-56.8-84.55c-5.59-6.86-11.21-13.69-16.82-20.53
				c-6.66-8.12-21.47-7.42-28.28,0C1210.74,646.43,1211.56,657.42,1218.67,666.09L1218.67,666.09z"/>
		</g>
	</g>
	<g>
		<path class="st0" d="M995.64,1268.37c-2.73,10.42-11.78,15.62-27.15,15.62h-35.06c-10.94,0-16.41-3.16-16.41-9.47
			c0-2.21,0.68-5.11,2.05-8.69l16.21-42.19l-48.44,53.12c-5.21,5.79-10.91,8.69-17.09,8.69c-1.17,0-2.41-0.1-3.71-0.29
			c-7.42-0.85-11.13-4.56-11.13-11.13c0-2.54,0.59-5.27,1.76-8.2l24.02-62.01l-60.25,72.75c-4.04,4.95-9.96,7.42-17.77,7.42h-19.82
			l39.45-112.79h-54.2l14.75-24.61h65.23c8.98,0,13.48,3.29,13.48,9.86c0,2.54-0.62,5.6-1.86,9.18l-21,60.55l41.99-47.56
			c5.34-6.12,9.44-10.09,12.3-11.91c4.75-2.99,10.9-4.49,18.46-4.49c2.15,0,4.39,0.75,6.74,2.25c3.58,2.34,5.37,5.83,5.37,10.45
			c0,2.87-0.72,6.09-2.15,9.67l-18.95,49.22l37.6-37.79c5.34-5.34,8.89-8.56,10.64-9.67c3.06-1.76,7.45-2.6,13.18-2.54
			c2.28,0,4.69,0.85,7.23,2.54c3.91,2.54,5.86,6.25,5.86,11.13c0,2.8-0.65,5.89-1.95,9.28l-23.34,61.62H995.64z"/>
		<path class="st0" d="M1052.48,1271.4c0,4.3-1.66,7.98-4.98,11.04s-7.32,4.59-12.01,4.59c-4.75,0-8.77-1.53-12.06-4.59
			c-3.29-3.06-4.93-6.74-4.93-11.04s1.64-7.97,4.93-11.04c3.29-3.06,7.31-4.59,12.06-4.59c4.69,0,8.69,1.53,12.01,4.59
			C1050.82,1263.42,1052.48,1267.1,1052.48,1271.4z"/>
		<path class="st0" d="M1275.72,1170.22c0,6.45-2.56,11.95-7.67,16.5c-5.11,4.56-11.25,6.84-18.41,6.84
			c-7.16,0-13.28-2.28-18.36-6.84c-5.08-4.56-7.62-10.06-7.62-16.5c0-1.5,0.26-3.45,0.78-5.86c-2.93-0.26-4.79-0.39-5.57-0.39
			c-9.9,0-14.84,4.13-14.84,12.4c0,4.23,2.91,13.71,8.74,28.42c5.83,14.71,8.74,26.24,8.74,34.57c0,17.84-9.86,31.22-29.59,40.14
			c-14.71,6.58-31.93,9.86-51.66,9.86c-18.03,0-34.02-2.51-47.95-7.52c-19.6-7.03-29.39-17.84-29.39-32.42
			c0-21.22,18.07-31.84,54.2-31.84h37.21l7.13,15.62h-29c-7.29,0-13.64,1.27-19.04,3.81c-7.03,3.32-10.55,8.24-10.55,14.75
			c0,7.36,4.85,13.12,14.55,17.29c7.49,3.19,15.49,4.79,24.02,4.79c10.81,0,19.82-2.38,27.05-7.13c8.4-5.47,12.6-13.31,12.6-23.54
			c0-7.03-2.67-17.12-8.01-30.27c-5.34-13.15-8.01-23.37-8.01-30.66c0-23.76,20.21-35.64,60.64-35.64h24.12
			c6.64,0,12.56,2.25,17.77,6.74C1273.02,1158.08,1275.72,1163.71,1275.72,1170.22z"/>
	</g>
</g>
</svg>
